Exact Audio Copy V0.99 prebeta 4 from 23. January 2008

EAC 抓取日志文件从20. 二月 2013, 11:20

O恩凤 / 名人百集 O恩凤

使用驱动器  ：TEAC    CD-W540E   Adapter: 3  ID: 0

读取模式     : 保护
使用精确流   : 是
废除音频缓冲 : 是
使用 C2 指针 : 否

读取偏移校正                   : 686
读取 Lead-In 和 Lead-Out       : 否
用静音填充抓取中丢失偏移的采样 : 是
去除首尾静音块                 : 否
在 CRC 计算中使用了空样本      : 是
已用接口                       : Win NT 及 2000 本地 Win32 接口

所用输出格式 : 内部 WAV 函数
样本格式     : 44.100 Hz;16 Bit;立体声


被抓轨 CD 的 TOC

     音轨 |   开始   |   长度   | 起始扇区 | 结尾扇区 
    --------------------------------------------------
       1  |  0:00.00 |  3:55.25 |       0  |   17649  
       2  |  3:55.25 |  3:36.07 |   17650  |   33856  
       3  |  7:31.32 |  2:27.30 |   33857  |   44911  
       4  |  9:58.62 |  4:04.05 |   44912  |   63216  
       5  | 14:02.67 |  2:53.08 |   63217  |   76199  
       6  | 16:56.00 |  2:23.00 |   76200  |   86924  
       7  | 19:19.00 |  2:36.35 |   86925  |   98659  
       8  | 21:55.35 |  4:21.50 |   98660  |  118284  
       9  | 26:17.10 |  1:46.70 |  118285  |  126304  
      10  | 28:04.05 |  4:43.10 |  126305  |  147539  
      11  | 32:47.15 |  2:04.22 |  147540  |  156861  
      12  | 34:51.37 |  3:19.70 |  156862  |  171856  
      13  | 38:11.32 |  2:04.15 |  171857  |  181171  
      14  | 40:15.47 |  4:02.15 |  181172  |  199336  
      15  | 44:17.62 |  1:21.33 |  199337  |  205444  
      16  | 45:39.20 |  4:42.57 |  205445  |  226651  
      17  | 50:22.02 |  2:04.55 |  226652  |  236006  


范围状态及错误

已选择范围

     文件名 D:\行板如歌原抓\名人百集 O恩凤.wav

     峰值电平 100.0 %
     范围质量 100.0 %
     复制 CRC C098083F
     复制成功

没有错误发生

状态报告结尾
